<svg width="57" height="56" viewBox="0 0 57 56" fill="none" xmlns="http://www.w3.org/2000/svg">
<g filter="url(#filter0_d_836_2753)">
<path d="M5.02775 23.7914C5.02662 27.8377 6.09214 31.7887 8.11822 35.2711L4.83398 47.1694L17.1056 43.9767C20.4997 45.8101 24.3026 46.7707 28.1671 46.771H28.1773C40.9348 46.771 51.3197 36.4704 51.3251 23.8095C51.3276 17.6745 48.9219 11.9054 44.551 7.56513C40.181 3.2252 34.3689 0.833855 28.1763 0.831055C15.4174 0.831055 5.03321 11.1312 5.02794 23.7914" fill="url(#paint0_linear_836_2753)"/>
<path d="M4.20129 23.7839C4.19997 27.9758 5.30369 32.0681 7.402 35.6752L4 48L16.7116 44.6929C20.214 46.5877 24.1575 47.5867 28.1701 47.5882H28.1804C41.3956 47.5882 52.1536 36.917 52.1592 23.803C52.1615 17.4475 49.6692 11.471 45.1423 6.97525C40.6147 2.48001 34.5948 0.00261329 28.1804 0C14.963 0 4.20656 10.6697 4.20129 23.7839ZM11.7715 35.0539L11.2969 34.3064C9.30165 31.1585 8.24855 27.5208 8.25005 23.7854C8.25419 12.8852 17.1945 4.017 28.188 4.017C33.5118 4.01924 38.5151 6.07852 42.2783 9.81478C46.0413 13.5514 48.112 18.5185 48.1107 23.8015C48.1058 34.7017 39.1653 43.571 28.1804 43.571H28.1725C24.5958 43.5692 21.0879 42.6161 18.0286 40.8149L17.3006 40.3866L9.75729 42.3489L11.7715 35.0539Z" fill="url(#paint1_linear_836_2753)"/>
<path d="M22.1872 13.8407C21.7383 12.8508 21.266 12.8309 20.8391 12.8135C20.4896 12.7986 20.09 12.7997 19.6908 12.7997C19.2912 12.7997 18.642 12.9488 18.0933 13.5434C17.544 14.1385 15.9961 15.5765 15.9961 18.5013C15.9961 21.4262 18.1431 24.253 18.4424 24.65C18.7421 25.0463 22.5873 31.2406 28.6772 33.6235C33.7384 35.6038 34.7684 35.21 35.8669 35.1107C36.9655 35.0117 39.4118 33.673 39.9109 32.2848C40.4104 30.8967 40.4104 29.7069 40.2606 29.4583C40.1109 29.2106 39.7113 29.0618 39.1121 28.7647C38.513 28.4675 35.5672 27.0291 35.018 26.8306C34.4687 26.6324 34.0693 26.5335 33.6698 27.1288C33.2702 27.7231 32.1228 29.0618 31.7731 29.4583C31.4238 29.8557 31.0741 29.9052 30.4751 29.6078C29.8755 29.3095 27.946 28.6825 25.6567 26.6574C23.8756 25.0816 22.6731 23.1356 22.3236 22.5404C21.974 21.946 22.2861 21.6239 22.5866 21.3276C22.8558 21.0612 23.1859 20.6334 23.4858 20.2864C23.7845 19.9392 23.8842 19.6915 24.084 19.295C24.284 18.8982 24.1839 18.551 24.0344 18.2536C23.8842 17.9563 22.7199 15.0161 22.1872 13.8407Z" fill="white"/>
</g>
<defs>
<filter id="filter0_d_836_2753" x="0" y="0" width="56.1602" height="56" filterUnits="userSpaceOnUse" color-interpolation-filters="sRGB">
<feFlood flood-opacity="0" result="BackgroundImageFix"/>
<feColorMatrix in="SourceAlpha" type="matrix" values="0 0 0 0 0 0 0 0 0 0 0 0 0 0 0 0 0 0 127 0" result="hardAlpha"/>
<feOffset dy="4"/>
<feGaussianBlur stdDeviation="2"/>
<feComposite in2="hardAlpha" operator="out"/>
<feColorMatrix type="matrix" values="0 0 0 0 0 0 0 0 0 0 0 0 0 0 0 0 0 0 0.1 0"/>
<feBlend mode="normal" in2="BackgroundImageFix" result="effect1_dropShadow_836_2753"/>
<feBlend mode="normal" in="SourceGraphic" in2="effect1_dropShadow_836_2753" result="shape"/>
</filter>
<linearGradient id="paint0_linear_836_2753" x1="2329.39" y1="4634.66" x2="2329.39" y2="0.831055" gradientUnits="userSpaceOnUse">
<stop stop-color="#1FAF38"/>
<stop offset="1" stop-color="#60D669"/>
</linearGradient>
<linearGradient id="paint1_linear_836_2753" x1="2411.96" y1="4800" x2="2411.96" y2="0" gradientUnits="userSpaceOnUse">
<stop stop-color="#F9F9F9"/>
<stop offset="1" stop-color="white"/>
</linearGradient>
</defs>
</svg>
