<svg width="98" height="98" viewBox="0 0 98 98" fill="none" xmlns="http://www.w3.org/2000/svg">
<path fill-rule="evenodd" clip-rule="evenodd" d="M49 6C25.2518 6 6 25.2518 6 49C6 72.7482 25.2518 92 49 92C72.7482 92 92 72.7482 92 49C92 25.2518 72.7482 6 49 6ZM0 49C0 21.938 21.938 0 49 0C76.062 0 98 21.938 98 49C98 76.062 76.062 98 49 98C21.938 98 0 76.062 0 49ZM45.2574 49.2574L26 30L30.2426 25.7574L49.5 45.0147L68.7574 25.7574L73 30L53.7426 49.2574L73.2426 68.7574L69 73L49.5 53.5L30 73L25.7574 68.7574L45.2574 49.2574Z" fill="#D98E8E"/>
</svg>
