<svg width="21" height="20" viewBox="0 0 21 20" fill="none" xmlns="http://www.w3.org/2000/svg">
<path d="M14.6667 19.32V19.9867H15.3612V19.32H14.6667ZM0.777819 19.32H0.083374V19.9867H0.777819V19.32ZM20.2223 19.3333V20H20.9167V19.3333H20.2223ZM11.1945 4.664C11.1943 5.10156 11.1043 5.53481 10.9298 5.939C10.7552 6.34319 10.4993 6.71041 10.1769 7.01969C9.85449 7.32897 9.47177 7.57426 9.0506 7.74154C8.62943 7.90883 8.17806 7.99484 7.72226 7.99467V9.328C10.407 9.328 12.5834 7.24 12.5834 4.664H11.1945ZM7.72226 7.99467C7.26647 7.99484 6.8151 7.90883 6.39393 7.74154C5.97276 7.57426 5.59003 7.32897 5.26761 7.01969C4.94518 6.71041 4.68937 6.34319 4.51477 5.939C4.34018 5.53481 4.25022 5.10156 4.25004 4.664H2.86115C2.86133 5.27666 2.98722 5.88329 3.23161 6.44924C3.476 7.0152 3.83412 7.52941 4.28551 7.9625C4.73691 8.39559 5.27274 8.73909 5.86242 8.97338C6.4521 9.20768 7.08408 9.32817 7.72226 9.328V7.99467ZM4.25004 4.664C4.25022 4.22644 4.34018 3.79319 4.51477 3.389C4.68937 2.98481 4.94518 2.61759 5.26761 2.30831C5.59003 1.99903 5.97276 1.75374 6.39393 1.58646C6.8151 1.41917 7.26647 1.33316 7.72226 1.33333V1.90603e-07C7.08408 -0.00017493 6.4521 0.120324 5.86242 0.354617C5.27274 0.58891 4.73691 0.932409 4.28551 1.3655C3.83412 1.79859 3.476 2.3128 3.23161 2.87876C2.98722 3.44471 2.86133 4.05134 2.86115 4.664H4.25004ZM7.72226 1.33333C8.64267 1.33333 9.52542 1.68416 10.1765 2.3087C10.8276 2.93325 11.1937 3.78041 11.1945 4.664H12.5834C12.5832 4.05134 12.4573 3.44471 12.2129 2.87876C11.9685 2.3128 11.6104 1.79859 11.159 1.3655C10.7076 0.932409 10.1718 0.58891 9.5821 0.354617C8.99243 0.120324 8.36045 -0.00017493 7.72226 1.90603e-07V1.33333ZM14.6667 18.6533H0.777819V19.9867H14.6667V18.6533ZM1.47226 19.32V16.66H0.083374V19.32H1.47226ZM4.94449 13.3253H10.5V11.992H4.94449V13.3253ZM13.9723 16.6587V19.32H15.3612V16.6587H13.9723ZM10.5 13.3253C11.4209 13.3253 12.3041 13.6765 12.9553 14.3016C13.6064 14.9268 13.9723 15.7746 13.9723 16.6587H15.3612C15.3612 15.421 14.849 14.234 13.9374 13.3588C13.0257 12.4837 11.7893 11.992 10.5 11.992V13.3253ZM1.47226 16.66C1.47226 15.7759 1.83809 14.9268 2.48925 14.3016C3.14042 13.6765 4.02359 13.3253 4.94449 13.3253V11.992C3.65524 11.992 2.4188 12.4837 1.50716 13.3588C0.595525 14.234 0.083374 15.4223 0.083374 16.66H1.47226ZM19.5278 17.3333V19.3333H20.9167V17.3333H19.5278ZM20.2223 18.6667H16.75V20H20.2223V18.6667ZM16.75 14.6667C17.4868 14.6667 18.1933 14.9476 18.7142 15.4477C19.2352 15.9478 19.5278 16.6261 19.5278 17.3333H20.9167C20.9167 16.2725 20.4777 15.2551 19.6963 14.5049C18.9149 13.7548 17.8551 13.3333 16.75 13.3333V14.6667ZM16.0556 10.6667C15.5031 10.6667 14.9732 10.456 14.5825 10.0809C14.1918 9.70581 13.9723 9.1971 13.9723 8.66667H12.5834C12.5834 9.55072 12.9492 10.3986 13.6004 11.0237C14.2515 11.6488 15.1347 12 16.0556 12V10.6667ZM18.1389 8.66667C18.1389 9.1971 17.9194 9.70581 17.5287 10.0809C17.138 10.456 16.6081 10.6667 16.0556 10.6667V12C16.9765 12 17.8597 11.6488 18.5108 11.0237C19.162 10.3986 19.5278 9.55072 19.5278 8.66667H18.1389ZM16.0556 6.66667C16.6081 6.66667 17.138 6.87738 17.5287 7.25245C17.9194 7.62753 18.1389 8.13623 18.1389 8.66667H19.5278C19.5278 7.78261 19.162 6.93477 18.5108 6.30964C17.8597 5.68452 16.9765 5.33333 16.0556 5.33333V6.66667ZM16.0556 5.33333C15.1347 5.33333 14.2515 5.68452 13.6004 6.30964C12.9492 6.93477 12.5834 7.78261 12.5834 8.66667H13.9723C13.9723 8.13623 14.1918 7.62753 14.5825 7.25245C14.9732 6.87738 15.5031 6.66667 16.0556 6.66667V5.33333Z" fill="#59423C"/>
</svg>
