<svg width="30" height="38" viewBox="0 0 30 38" fill="none" xmlns="http://www.w3.org/2000/svg">
<path d="M0 38V0H2V4H29.54L25.922 13L29.536 22H2V38H0ZM14 16C14.844 16 15.5547 15.7107 16.132 15.132C16.7107 14.5547 17 13.844 17 13C17 12.156 16.7107 11.4453 16.132 10.868C15.5547 10.2893 14.844 10 14 10C13.156 10 12.4453 10.2893 11.868 10.868C11.2893 11.4453 11 12.156 11 13C11 13.844 11.2893 14.5547 11.868 15.132C12.4453 15.7107 13.156 16 14 16ZM2 20H26.56L23.778 13L26.564 6H2V20Z" fill="#59423C"/>
</svg>
