<svg width="29" height="42" viewBox="0 0 29 42" fill="none" xmlns="http://www.w3.org/2000/svg">
<path fill-rule="evenodd" clip-rule="evenodd" d="M12.062 22.602L1.32995 2.41597C1.26829 2.30001 1.23008 2.17305 1.21749 2.04232C1.20491 1.9116 1.21819 1.77967 1.25659 1.65408C1.33414 1.40044 1.50926 1.18799 1.74345 1.06347C1.97764 0.938953 2.2517 0.912564 2.50534 0.99011C2.63093 1.02851 2.74773 1.09127 2.84907 1.1748C2.9504 1.25834 3.03429 1.36102 3.09595 1.47697L13.829 21.663L15.351 20.853C15.8148 20.6064 16.3228 20.4535 16.8457 20.4032C17.3687 20.3529 17.8964 20.4062 18.3988 20.5598C18.9011 20.7135 19.3683 20.9647 19.7736 21.2989C20.1789 21.6332 20.5144 22.044 20.761 22.508L21.409 23.726L28.278 33.781L14.0289 41.357L9.53395 30.039L8.88695 28.821C8.6403 28.3571 8.48742 27.8493 8.43706 27.3264C8.38669 26.8035 8.43982 26.2758 8.59341 25.7734C8.747 25.271 8.99804 24.8038 9.3322 24.3985C9.66637 23.9931 10.0771 23.6576 10.541 23.411L12.062 22.602ZM11.479 25.177L16.2889 22.62C16.5209 22.4966 16.7748 22.4202 17.0362 22.395C17.2977 22.3698 17.5616 22.3964 17.8127 22.4732C18.0639 22.55 18.2975 22.6755 18.5002 22.8426C18.7029 23.0097 18.8707 23.215 18.9939 23.447L19.642 24.664L11.299 29.1L10.652 27.882C10.5286 27.6501 10.4522 27.3961 10.427 27.1347C10.4018 26.8732 10.4284 26.6094 10.5052 26.3582C10.582 26.107 10.7075 25.8734 10.8746 25.6707C11.0417 25.468 11.247 25.3003 11.479 25.177ZM12.309 31.609L15.062 38.542L16.896 37.567L14.731 33.352L16.511 32.438L18.663 36.628L25.365 33.064L21.1569 26.904L12.309 31.609Z" fill="#59423C"/>
<path d="M6.36 32.231C6.46092 32.1469 6.57741 32.0836 6.70281 32.0446C6.82821 32.0055 6.96007 31.9916 7.09086 32.0035C7.22165 32.0155 7.34882 32.053 7.46509 32.1141C7.58135 32.1752 7.68445 32.2586 7.7685 32.3595C7.85255 32.4604 7.91589 32.5769 7.95492 32.7023C7.99395 32.8277 8.00789 32.9596 7.99596 33.0903C7.98403 33.2211 7.94645 33.3483 7.88538 33.4646C7.8243 33.5808 7.74092 33.6839 7.64 33.768L7.639 33.769L7.637 33.771L7.634 33.773L7.624 33.781L7.594 33.806L7.491 33.885C7.404 33.95 7.281 34.039 7.124 34.145C6.809 34.355 6.354 34.629 5.78 34.903C4.28784 35.6189 2.65501 35.9936 1 36C0.734784 36 0.48043 35.8946 0.292893 35.7071C0.105357 35.5196 0 35.2652 0 35C0 34.7348 0.105357 34.4804 0.292893 34.2929C0.48043 34.1053 0.734784 34 1 34C2.35747 33.9935 3.6965 33.685 4.92 33.097C5.29884 32.9175 5.66443 32.7113 6.014 32.48C6.12909 32.4039 6.24149 32.3239 6.351 32.24L6.361 32.23L6.36 32.231ZM9.555 38.832C9.77566 38.6848 9.92881 38.456 9.98076 38.1959C10.0327 37.9357 9.9792 37.6656 9.832 37.445C9.68481 37.2243 9.45598 37.0712 9.19587 37.0192C8.93576 36.9673 8.66566 37.0208 8.445 37.168L8.443 37.17L8.423 37.182L8.337 37.237C7.81637 37.5546 7.27593 37.8385 6.719 38.087C5.649 38.561 4.299 39 3 39C2.73478 39 2.48043 39.1053 2.29289 39.2929C2.10536 39.4804 2 39.7348 2 40C2 40.2652 2.10536 40.5196 2.29289 40.7071C2.48043 40.8946 2.73478 41 3 41C4.702 41 6.35 40.439 7.531 39.914C8.17251 39.6283 8.79482 39.3012 9.394 38.935C9.43219 38.9113 9.47019 38.8873 9.508 38.863L9.54 38.842L9.55 38.836L9.555 38.832Z" fill="#59423C"/>
</svg>
