<svg width="38" height="38" viewBox="0 0 38 38" fill="none" xmlns="http://www.w3.org/2000/svg">
<path d="M11.5 22.2606C11.6989 22.2606 11.8897 22.1816 12.0303 22.041C12.171 21.9003 12.25 21.7095 12.25 21.5106V18.25H25.75V21.8669C25.75 22.0658 25.829 22.2566 25.9697 22.3972C26.1103 22.5379 26.3011 22.6169 26.5 22.6169C26.6989 22.6169 26.8897 22.5379 27.0303 22.3972C27.171 22.2566 27.25 22.0658 27.25 21.8669V1C27.25 0.801088 27.171 0.610322 27.0303 0.46967C26.8897 0.329018 26.6989 0.25 26.5 0.25C26.3011 0.25 26.1103 0.329018 25.9697 0.46967C25.829 0.610322 25.75 0.801088 25.75 1V4.75H12.25V1C12.25 0.801088 12.171 0.610322 12.0303 0.46967C11.8897 0.329018 11.6989 0.25 11.5 0.25C11.3011 0.25 11.1103 0.329018 10.9697 0.46967C10.829 0.610322 10.75 0.801088 10.75 1V21.5106C10.75 21.7095 10.829 21.9003 10.9697 22.041C11.1103 22.1816 11.3011 22.2606 11.5 22.2606ZM12.25 16.75V12.25H25.75V16.75H12.25ZM25.75 6.25V10.75H12.25V6.25H25.75ZM0.25 26.5C0.25 26.3011 0.329018 26.1103 0.46967 25.9697C0.610322 25.829 0.801088 25.75 1 25.75C3.47688 25.75 4.7725 26.6144 5.91625 27.3756C7.0225 28.1125 7.97875 28.75 10 28.75C12.0212 28.75 12.9775 28.1125 14.0837 27.3756C15.2256 26.6144 16.5212 25.75 18.9981 25.75C21.475 25.75 22.7725 26.6144 23.9144 27.3756C25.0206 28.1125 25.9769 28.75 28 28.75C30.0231 28.75 30.9775 28.1125 32.0837 27.3756C33.2275 26.6144 34.5213 25.75 37 25.75C37.1989 25.75 37.3897 25.829 37.5303 25.9697C37.671 26.1103 37.75 26.3011 37.75 26.5C37.75 26.6989 37.671 26.8897 37.5303 27.0303C37.3897 27.171 37.1989 27.25 37 27.25C34.9769 27.25 34.0225 27.8875 32.9163 28.6244C31.7725 29.3856 30.4788 30.25 28 30.25C25.5212 30.25 24.2256 29.3856 23.0837 28.6244C21.9775 27.8875 21.0212 27.25 18.9981 27.25C16.975 27.25 16.0206 27.8875 14.9144 28.6244C13.7725 29.3856 12.4769 30.25 10 30.25C7.52313 30.25 6.2275 29.3856 5.08375 28.6244C3.9775 27.8875 3.02312 27.25 1 27.25C0.801088 27.25 0.610322 27.171 0.46967 27.0303C0.329018 26.8897 0.25 26.6989 0.25 26.5ZM37.75 34C37.75 34.1989 37.671 34.3897 37.5303 34.5303C37.3897 34.671 37.1989 34.75 37 34.75C34.9769 34.75 34.0225 35.3875 32.9163 36.1244C31.7725 36.8856 30.4788 37.75 28 37.75C25.5212 37.75 24.2256 36.8856 23.0837 36.1244C21.9775 35.3875 21.0212 34.75 18.9981 34.75C16.975 34.75 16.0206 35.3875 14.9144 36.1244C13.7725 36.8856 12.4769 37.75 10 37.75C7.52313 37.75 6.2275 36.8856 5.08375 36.1244C3.9775 35.3875 3.02312 34.75 1 34.75C0.801088 34.75 0.610322 34.671 0.46967 34.5303C0.329018 34.3897 0.25 34.1989 0.25 34C0.25 33.8011 0.329018 33.6103 0.46967 33.4697C0.610322 33.329 0.801088 33.25 1 33.25C3.47688 33.25 4.7725 34.1144 5.91625 34.8756C7.0225 35.6125 7.97875 36.25 10 36.25C12.0212 36.25 12.9775 35.6125 14.0837 34.8756C15.2256 34.1144 16.5212 33.25 18.9981 33.25C21.475 33.25 22.7725 34.1144 23.9144 34.8756C25.0206 35.6125 25.9769 36.25 28 36.25C30.0231 36.25 30.9775 35.6125 32.0837 34.8756C33.2275 34.1144 34.5213 33.25 37 33.25C37.1989 33.25 37.3897 33.329 37.5303 33.4697C37.671 33.6103 37.75 33.8011 37.75 34Z" fill="#59423C"/>
</svg>
