<svg width="24" height="24" viewBox="0 0 24 24" fill="none" xmlns="http://www.w3.org/2000/svg">
<path d="M3 18V13C3 12.704 3.08533 12.3887 3.256 12.054C3.42667 11.7193 3.67467 11.468 4 11.3V9C4 8.436 4.19233 7.96167 4.577 7.577C4.96167 7.19233 5.436 7 6 7H10.5C10.8447 7 11.139 7.071 11.383 7.213C11.6263 7.35433 11.832 7.55 12 7.8C12.168 7.55 12.3737 7.35433 12.617 7.213C12.861 7.071 13.1553 7 13.5 7H18C18.564 7 19.0383 7.19233 19.423 7.577C19.8077 7.96167 20 8.436 20 9V11.3C20.3253 11.468 20.5733 11.7193 20.744 12.054C20.9147 12.3887 21 12.704 21 13V18H20V16H4V18H3ZM12.5 11H19V9C19 8.71667 18.904 8.47933 18.712 8.288C18.52 8.09667 18.2827 8.00067 18 8H13.5C13.2167 8 12.9793 8.096 12.788 8.288C12.5967 8.48 12.5007 8.71733 12.5 9V11ZM5 11H11.5V9C11.5 8.71667 11.404 8.47933 11.212 8.288C11.02 8.09667 10.7827 8.00067 10.5 8H6C5.71667 8 5.47933 8.096 5.288 8.288C5.09667 8.48 5.00067 8.71733 5 9V11ZM4 15H20V13C20 12.7167 19.904 12.4793 19.712 12.288C19.52 12.0967 19.2827 12.0007 19 12H5C4.71667 12 4.47933 12.096 4.288 12.288C4.09667 12.48 4.00067 12.7173 4 13V15Z" fill="#59423C"/>
<rect x="9" y="8" width="6" height="3" fill="white"/>
<rect x="10" y="7" width="4" height="1" fill="#59423C"/>
</svg>
