<svg width="46" height="46" viewBox="0 0 46 46" fill="none" xmlns="http://www.w3.org/2000/svg">
<path d="M24.125 6.5V2C24.125 1.70163 24.0065 1.41548 23.7955 1.2045C23.5845 0.993526 23.2984 0.875 23 0.875C22.7016 0.875 22.4155 0.993526 22.2045 1.2045C21.9935 1.41548 21.875 1.70163 21.875 2V6.5C21.875 6.79837 21.9935 7.08452 22.2045 7.2955C22.4155 7.50647 22.7016 7.625 23 7.625C23.2984 7.625 23.5845 7.50647 23.7955 7.2955C24.0065 7.08452 24.125 6.79837 24.125 6.5ZM11.375 23C11.375 25.2992 12.0568 27.5468 13.3342 29.4585C14.6115 31.3702 16.4271 32.8602 18.5513 33.7401C20.6755 34.62 23.0129 34.8502 25.2679 34.4016C27.523 33.9531 29.5943 32.8459 31.2201 31.2201C32.8459 29.5943 33.9531 27.523 34.4016 25.2679C34.8502 23.0129 34.62 20.6755 33.7401 18.5513C32.8602 16.4271 31.3702 14.6115 29.4585 13.3342C27.5468 12.0568 25.2992 11.375 23 11.375C19.9179 11.3785 16.9631 12.6044 14.7837 14.7837C12.6044 16.9631 11.3785 19.9179 11.375 23ZM13.625 23C13.625 21.1458 14.1748 19.3332 15.205 17.7915C16.2351 16.2498 17.6993 15.0482 19.4123 14.3386C21.1254 13.6291 23.0104 13.4434 24.829 13.8051C26.6475 14.1669 28.318 15.0598 29.6291 16.3709C30.9402 17.682 31.8331 19.3525 32.1949 21.171C32.5566 22.9896 32.3709 24.8746 31.6614 26.5877C30.9518 28.3007 29.7502 29.7649 28.2085 30.795C26.6668 31.8252 24.8542 32.375 23 32.375C20.5145 32.372 18.1317 31.3833 16.3742 29.6258C14.6167 27.8683 13.628 25.4855 13.625 23ZM35.795 11.795C35.692 11.9055 35.5678 11.9942 35.4298 12.0557C35.2918 12.1172 35.1428 12.1502 34.9918 12.1529C34.8407 12.1556 34.6907 12.1278 34.5506 12.0712C34.4105 12.0146 34.2833 11.9304 34.1764 11.8236C34.0696 11.7167 33.9854 11.5895 33.9288 11.4494C33.8722 11.3093 33.8444 11.1593 33.8471 11.0082C33.8498 10.8572 33.8828 10.7082 33.9443 10.5702C34.0058 10.4322 34.0945 10.308 34.205 10.205L37.205 7.205C37.4183 7.00628 37.7003 6.8981 37.9918 6.90324C38.2832 6.90838 38.5613 7.02645 38.7674 7.23257C38.9736 7.43869 39.0916 7.71676 39.0968 8.00822C39.1019 8.29967 38.9937 8.58174 38.795 8.795L35.795 11.795ZM35.795 34.205L38.795 37.205C38.9055 37.308 38.9942 37.4322 39.0557 37.5702C39.1172 37.7082 39.1502 37.8572 39.1529 38.0082C39.1556 38.1593 39.1278 38.3093 39.0712 38.4494C39.0146 38.5895 38.9304 38.7167 38.8236 38.8236C38.7167 38.9304 38.5895 39.0146 38.4494 39.0712C38.3093 39.1278 38.1593 39.1556 38.0082 39.1529C37.8572 39.1502 37.7082 39.1172 37.5702 39.0557C37.4322 38.9942 37.308 38.9055 37.205 38.795L34.205 35.795C34.0945 35.692 34.0058 35.5678 33.9443 35.4298C33.8828 35.2918 33.8498 35.1428 33.8471 34.9918C33.8444 34.8407 33.8722 34.6907 33.9288 34.5506C33.9854 34.4105 34.0696 34.2833 34.1764 34.1764C34.2833 34.0696 34.4105 33.9854 34.5506 33.9288C34.6907 33.8722 34.8407 33.8444 34.9918 33.8471C35.1428 33.8498 35.2918 33.8828 35.4298 33.9443C35.5678 34.0058 35.692 34.0945 35.795 34.205ZM11 12.125C10.7017 12.1247 10.4158 12.006 10.205 11.795L7.205 8.795C7.00628 8.58174 6.89809 8.29967 6.90324 8.00822C6.90838 7.71676 7.02645 7.43869 7.23257 7.23257C7.43869 7.02645 7.71677 6.90838 8.00822 6.90324C8.29967 6.8981 8.58174 7.00628 8.795 7.205L11.795 10.205C11.9521 10.3623 12.0591 10.5627 12.1024 10.7808C12.1458 10.9989 12.1235 11.2249 12.0384 11.4304C11.9534 11.6358 11.8093 11.8115 11.6245 11.9351C11.4397 12.0587 11.2224 12.1248 11 12.125ZM10.205 34.205C10.4183 34.0063 10.7003 33.8981 10.9918 33.9032C11.2832 33.9084 11.5613 34.0264 11.7674 34.2326C11.9736 34.4387 12.0916 34.7168 12.0968 35.0082C12.1019 35.2997 11.9937 35.5817 11.795 35.795L8.795 38.795C8.58174 38.9937 8.29967 39.1019 8.00822 39.0968C7.71677 39.0916 7.43869 38.9736 7.23257 38.7674C7.02645 38.5613 6.90838 38.2832 6.90324 37.9918C6.89809 37.7003 7.00628 37.4183 7.205 37.205L10.205 34.205ZM38.375 23C38.375 22.7016 38.4935 22.4155 38.7045 22.2045C38.9155 21.9935 39.2016 21.875 39.5 21.875H44C44.2984 21.875 44.5845 21.9935 44.7955 22.2045C45.0065 22.4155 45.125 22.7016 45.125 23C45.125 23.2984 45.0065 23.5845 44.7955 23.7955C44.5845 24.0065 44.2984 24.125 44 24.125H39.5C39.2016 24.125 38.9155 24.0065 38.7045 23.7955C38.4935 23.5845 38.375 23.2984 38.375 23ZM23 38.375C23.2984 38.375 23.5845 38.4935 23.7955 38.7045C24.0065 38.9155 24.125 39.2016 24.125 39.5V44C24.125 44.2984 24.0065 44.5845 23.7955 44.7955C23.5845 45.0065 23.2984 45.125 23 45.125C22.7016 45.125 22.4155 45.0065 22.2045 44.7955C21.9935 44.5845 21.875 44.2984 21.875 44V39.5C21.875 39.2016 21.9935 38.9155 22.2045 38.7045C22.4155 38.4935 22.7016 38.375 23 38.375ZM2 21.875H6.5C6.79837 21.875 7.08452 21.9935 7.29549 22.2045C7.50647 22.4155 7.625 22.7016 7.625 23C7.625 23.2984 7.50647 23.5845 7.29549 23.7955C7.08452 24.0065 6.79837 24.125 6.5 24.125H2C1.70163 24.125 1.41548 24.0065 1.20451 23.7955C0.993526 23.5845 0.875 23.2984 0.875 23C0.875 22.7016 0.993526 22.4155 1.20451 22.2045C1.41548 21.9935 1.70163 21.875 2 21.875Z" fill="#59423C"/>
</svg>
