<svg width="46" height="35" viewBox="0 0 46 35" fill="none" xmlns="http://www.w3.org/2000/svg">
<path d="M44 14.375H41.7312L36.4231 2.43313C36.2168 1.96936 35.8805 1.57535 35.4549 1.29881C35.0293 1.02227 34.5326 0.875056 34.025 0.875H11.975C11.4674 0.875056 10.9707 1.02227 10.5451 1.29881C10.1195 1.57535 9.78317 1.96936 9.57687 2.43313L4.26875 14.375H2C1.70163 14.375 1.41548 14.4935 1.2045 14.7045C0.993526 14.9155 0.875 15.2016 0.875 15.5C0.875 15.7984 0.993526 16.0845 1.2045 16.2955C1.41548 16.5065 1.70163 16.625 2 16.625H3.875V32C3.875 32.6962 4.15156 33.3639 4.64384 33.8562C5.13613 34.3484 5.80381 34.625 6.5 34.625H11C11.6962 34.625 12.3639 34.3484 12.8562 33.8562C13.3484 33.3639 13.625 32.6962 13.625 32V28.625H32.375V32C32.375 32.6962 32.6516 33.3639 33.1438 33.8562C33.6361 34.3484 34.3038 34.625 35 34.625H39.5C40.1962 34.625 40.8639 34.3484 41.3562 33.8562C41.8484 33.3639 42.125 32.6962 42.125 32V16.625H44C44.2984 16.625 44.5845 16.5065 44.7955 16.2955C45.0065 16.0845 45.125 15.7984 45.125 15.5C45.125 15.2016 45.0065 14.9155 44.7955 14.7045C44.5845 14.4935 44.2984 14.375 44 14.375ZM11.6319 3.34812C11.6613 3.28169 11.7094 3.22523 11.7703 3.18562C11.8312 3.14601 11.9023 3.12495 11.975 3.125H34.025C34.0977 3.12495 34.1688 3.14601 34.2297 3.18562C34.2906 3.22523 34.3387 3.28169 34.3681 3.34812L39.2694 14.375H6.73063L11.6319 3.34812ZM11.375 32C11.375 32.0995 11.3355 32.1948 11.2652 32.2652C11.1948 32.3355 11.0995 32.375 11 32.375H6.5C6.40054 32.375 6.30516 32.3355 6.23483 32.2652C6.16451 32.1948 6.125 32.0995 6.125 32V28.625H11.375V32ZM39.5 32.375H35C34.9005 32.375 34.8052 32.3355 34.7348 32.2652C34.6645 32.1948 34.625 32.0995 34.625 32V28.625H39.875V32C39.875 32.0995 39.8355 32.1948 39.7652 32.2652C39.6948 32.3355 39.5995 32.375 39.5 32.375ZM39.875 26.375H6.125V16.625H39.875V26.375ZM9.875 21.5C9.875 21.2016 9.99353 20.9155 10.2045 20.7045C10.4155 20.4935 10.7016 20.375 11 20.375H14C14.2984 20.375 14.5845 20.4935 14.7955 20.7045C15.0065 20.9155 15.125 21.2016 15.125 21.5C15.125 21.7984 15.0065 22.0845 14.7955 22.2955C14.5845 22.5065 14.2984 22.625 14 22.625H11C10.7016 22.625 10.4155 22.5065 10.2045 22.2955C9.99353 22.0845 9.875 21.7984 9.875 21.5ZM30.875 21.5C30.875 21.2016 30.9935 20.9155 31.2045 20.7045C31.4155 20.4935 31.7016 20.375 32 20.375H35C35.2984 20.375 35.5845 20.4935 35.7955 20.7045C36.0065 20.9155 36.125 21.2016 36.125 21.5C36.125 21.7984 36.0065 22.0845 35.7955 22.2955C35.5845 22.5065 35.2984 22.625 35 22.625H32C31.7016 22.625 31.4155 22.5065 31.2045 22.2955C30.9935 22.0845 30.875 21.7984 30.875 21.5Z" fill="#59423C"/>
</svg>
