<svg width="32" height="32" viewBox="0 0 32 32" fill="none" xmlns="http://www.w3.org/2000/svg">
<path d="M1 32C0.716 32 0.478667 31.904 0.288 31.712C0.0960001 31.52 0 31.2827 0 31C0 30.7173 0.0960001 30.48 0.288 30.288C0.48 30.096 0.717333 30 1 30H27C27.284 30 27.5213 30.096 27.712 30.288C27.9027 30.48 27.9987 30.7173 28 31C28 31.2827 27.904 31.52 27.712 31.712C27.5213 31.9027 27.284 31.998 27 31.998L1 32ZM6.27 24.46C4.53133 24.46 3.05133 23.8693 1.83 22.688C0.61 21.5067 0 20.072 0 18.384V2.076C0 1.48933 0.199333 0.996666 0.598 0.598C0.998 0.199333 1.49133 0 2.078 0H28.616C29.5467 0 30.3433 0.314667 31.006 0.944C31.6687 1.57333 32 2.34867 32 3.27V7.73C32 8.65 31.6687 9.42533 31.006 10.056C30.3433 10.6853 29.5467 11 28.616 11H24.616V18.384C24.616 20.072 24.0053 21.5067 22.784 22.688C21.564 23.8707 20.0847 24.462 18.346 24.462L6.27 24.46ZM6.27 22.46H18.346C19.5193 22.46 20.5247 22.06 21.362 21.26C22.198 20.4587 22.616 19.4953 22.616 18.37V2H2V18.384C2 19.5107 2.418 20.472 3.254 21.268C4.09 22.064 5.09533 22.462 6.27 22.462M24.616 9H28.616C29 9 29.3267 8.878 29.596 8.634C29.8653 8.39133 30 8.09 30 7.73V3.27C30 2.91 29.8653 2.60867 29.596 2.366C29.3267 2.122 29 2 28.616 2H24.616V9ZM6.27 22.46H2H22.616H6.27Z" fill="#59423C"/>
</svg>
