<svg width="36" height="40" viewBox="0 0 36 40" fill="none" xmlns="http://www.w3.org/2000/svg">
<path d="M35.573 38.3412C35.5282 38.4821 35.4561 38.6128 35.3609 38.7258C35.2656 38.8388 35.1489 38.9319 35.0176 38.9998C34.8863 39.0677 34.743 39.1091 34.5957 39.1216C34.4484 39.134 34.3001 39.1174 34.1592 39.0725L18.0005 33.9312L1.84173 39.0725C1.70089 39.1173 1.5526 39.1339 1.40533 39.1214C1.25806 39.1089 1.11469 39.0676 0.983409 38.9996C0.852131 38.9317 0.735512 38.8386 0.640211 38.7257C0.544911 38.6127 0.472795 38.4821 0.427981 38.3412C0.383168 38.2004 0.366534 38.0521 0.37903 37.9048C0.391526 37.7575 0.432906 37.6142 0.500809 37.4829C0.568712 37.3516 0.661807 37.235 0.774779 37.1397C0.887752 37.0444 1.01839 36.9723 1.15923 36.9275L14.2842 32.75L1.15923 28.5725C1.01839 28.5277 0.887752 28.4555 0.774779 28.3602C0.661807 28.2649 0.568712 28.1483 0.500809 28.017C0.432906 27.8858 0.391526 27.7424 0.37903 27.5951C0.366534 27.4479 0.383168 27.2996 0.427981 27.1587C0.472795 27.0179 0.544911 26.8872 0.640211 26.7743C0.735512 26.6613 0.852131 26.5682 0.983409 26.5003C1.11469 26.4324 1.25806 26.391 1.40533 26.3785C1.5526 26.366 1.70089 26.3827 1.84173 26.4275L18.0005 31.5687L34.1592 26.4275C34.4437 26.337 34.7524 26.3632 35.0176 26.5003C35.2827 26.6374 35.4825 26.8743 35.573 27.1587C35.6635 27.4432 35.6373 27.7519 35.5002 28.017C35.363 28.2822 35.1262 28.482 34.8417 28.5725L21.7167 32.75L34.8417 36.9275C34.9826 36.9722 35.1133 37.0443 35.2263 37.1396C35.3393 37.2349 35.4324 37.3515 35.5003 37.4828C35.5682 37.6141 35.6096 37.7575 35.6221 37.9048C35.6345 38.0521 35.6179 38.2004 35.573 38.3412ZM7.12548 16.25C7.12548 7.47309 16.9917 1.30059 17.4117 1.04184C17.5888 0.93307 17.7926 0.875488 18.0005 0.875488C18.2083 0.875488 18.4121 0.93307 18.5892 1.04184C19.0092 1.30059 28.8755 7.47309 28.8755 16.25C28.8755 19.1342 27.7297 21.9003 25.6903 23.9398C23.6508 25.9792 20.8847 27.125 18.0005 27.125C15.1163 27.125 12.3502 25.9792 10.3107 23.9398C8.27124 21.9003 7.12548 19.1342 7.12548 16.25ZM18.0005 24.875C18.8956 24.875 19.754 24.5194 20.387 23.8865C21.0199 23.2535 21.3755 22.3951 21.3755 21.5C21.3755 18.5975 19.1255 16.3568 18.0005 15.4175C16.8755 16.355 14.6255 18.605 14.6255 21.5C14.6255 22.3951 14.9811 23.2535 15.614 23.8865C16.2469 24.5194 17.1054 24.875 18.0005 24.875ZM9.37548 16.25C9.37559 17.5317 9.6618 18.7973 10.2132 19.9543C10.7647 21.1114 11.5675 22.1308 12.563 22.9381C12.4384 22.4689 12.3754 21.9854 12.3755 21.5C12.3755 16.4562 17.1717 13.1993 17.3761 13.0625C17.561 12.9391 17.7782 12.8733 18.0005 12.8733C18.2227 12.8733 18.44 12.9391 18.6249 13.0625C18.8292 13.1975 23.6255 16.4543 23.6255 21.5C23.6256 21.9854 23.5625 22.4689 23.438 22.9381C24.4335 22.1308 25.2363 21.1114 25.7877 19.9543C26.3392 18.7973 26.6254 17.5317 26.6255 16.25C26.6255 9.86372 20.0349 4.77122 18.0005 3.35372C15.9661 4.77122 9.37548 9.86185 9.37548 16.25Z" fill="#59423C"/>
</svg>
