<svg width="44" height="30" viewBox="0 0 44 30" fill="none" xmlns="http://www.w3.org/2000/svg">
<path d="M22.0003 29.846C21.139 29.846 20.411 29.5487 19.8163 28.954C19.2216 28.3593 18.9243 27.6313 18.9243 26.77C18.9243 25.9073 19.2216 25.1787 19.8163 24.584C20.411 23.9893 21.139 23.692 22.0003 23.692C22.8616 23.692 23.5896 23.9893 24.1843 24.584C24.779 25.1787 25.0763 25.9073 25.0763 26.77C25.0763 27.6313 24.779 28.3593 24.1843 28.954C23.5896 29.5487 22.8616 29.846 22.0003 29.846ZM10.7003 19.7L8.6543 17.63C10.3903 15.894 12.393 14.5347 14.6623 13.552C16.9316 12.568 19.3796 12.076 22.0063 12.076C24.633 12.076 27.0796 12.5693 29.3463 13.556C31.6103 14.544 33.6103 15.91 35.3463 17.654L33.3003 19.7C31.8336 18.2333 30.1336 17.0833 28.2003 16.25C26.267 15.4167 24.2003 15 22.0003 15C19.8003 15 17.7336 15.4167 15.8003 16.25C13.867 17.0833 12.167 18.2333 10.7003 19.7ZM2.2003 11.2L0.154297 9.154C2.9383 6.354 6.1883 4.14067 9.9043 2.514C13.619 0.890003 17.651 0.0780029 22.0003 0.0780029C26.3496 0.0780029 30.3816 0.891336 34.0963 2.518C37.8123 4.14334 41.0623 6.356 43.8463 9.156L41.8003 11.2C39.2336 8.63334 36.259 6.62534 32.8763 5.176C29.4936 3.72667 25.8683 3.00134 22.0003 3C18.1336 3 14.509 3.72534 11.1263 5.176C7.74363 6.62667 4.7683 8.63467 2.2003 11.2Z" fill="#59423C"/>
</svg>
