<svg width="44" height="40" viewBox="0 0 44 40" fill="none" xmlns="http://www.w3.org/2000/svg">
<path d="M0.34375 0.59375V4.15625H3.15625V0.59375H0.34375ZM4.84375 0.59375V4.15625H7.65625V0.59375H4.84375ZM9.34375 0.59375V4.15625H12.1562V0.59375H9.34375ZM13.8438 0.59375V4.15625H16.6562V0.59375H13.8438ZM18.3438 0.59375V4.15625H21.1562V0.59375H18.3438ZM22.8438 0.59375V4.15625H25.6562V0.59375H22.8438ZM27.3438 0.59375V4.15625H30.1562V0.59375H27.3438ZM31.8438 0.59375V4.15625H34.6562V0.59375H31.8438ZM36.3438 0.59375V4.15625H39.1562V0.59375H36.3438ZM40.8438 0.59375V4.15625H43.6562V0.59375H40.8438ZM0.34375 5.84375V8.65625H43.6562V5.84375H0.34375ZM0.34375 10.3438V35.171C1.07125 34.3512 2.01812 33.3974 3.15625 32.34V10.3438H0.34375ZM4.84375 10.3438V30.8189C5.70934 30.0605 6.65181 29.2653 7.65625 28.4475V10.3438H4.84375ZM9.34375 10.3438V27.0997C10.2712 26.3728 11.2088 25.6589 12.1562 24.9582V10.3438H9.34375ZM13.8438 10.3438V23.7308C14.3372 23.3776 14.8331 23.0279 15.3316 22.6817C15.7684 22.3786 16.2109 22.0767 16.6562 21.7755V10.3438H13.8438ZM18.3438 10.3438V20.6539C19.2727 20.0469 20.2103 19.4531 21.1562 18.8728V10.3438H18.3438ZM22.8438 10.3438V17.8591C23.7721 17.3128 24.7098 16.7824 25.6562 16.2682V10.3438H22.8438ZM27.3438 10.3438V15.3753C28.2713 14.898 29.209 14.4407 30.1562 14.0037V10.3438H27.3438ZM31.8438 10.3438V13.2573C32.7873 12.8561 33.7262 12.4848 34.6562 12.1506V10.3438H31.8438ZM36.3438 10.3438V11.5812C37.2946 11.2822 38.2333 11.0248 39.1562 10.8144V10.3438H36.3438ZM43.6562 11.8663C42.7561 11.9119 41.8159 12.0284 40.8438 12.2084V13.9062H43.6562V11.8663ZM39.1562 12.575C38.2397 12.8019 37.3007 13.0773 36.3438 13.3964V15.4062H39.1562V12.575ZM34.6562 13.9969C33.7297 14.3461 32.7906 14.7314 31.8438 15.1479V16.9062H34.6562V13.9969ZM30.1562 15.9197C29.2094 16.3684 28.2717 16.8362 27.3438 17.3228V19.9062H30.1562V15.9197ZM25.6562 18.2312C24.7099 18.7537 23.7722 19.2919 22.8438 19.8456V22.9062H25.6562V18.2312ZM21.1562 20.8727C20.2099 21.4607 19.2723 22.0627 18.3438 22.6785V25.9062H21.1562V20.8727ZM16.6562 23.8187C16.5353 23.9019 16.4136 23.9848 16.2934 24.0681C15.47 24.6396 14.6534 25.2209 13.8438 25.8118V28.9062H16.6562V23.8187ZM12.1562 27.0643C11.2081 27.7803 10.2705 28.5102 9.34375 29.2537V31.9062H12.1562V27.0643ZM7.65625 30.635C6.63231 31.4907 5.68909 32.312 4.84375 33.0809V36.4062H7.65625V30.635ZM3.15625 34.6737C2.44984 35.3687 1.85472 35.996 1.39656 36.5288C1.00844 36.9797 0.7165 37.3662 0.539688 37.6494C0.362781 37.9325 0.34375 38.1465 0.34375 38V39.4062H3.15625V34.6737Z" fill="#59423C"/>
</svg>
