<svg width="38" height="33" viewBox="0 0 38 33" fill="none" xmlns="http://www.w3.org/2000/svg">
<path d="M4.74966 10.6L10.9997 7.15001V18.27C10.6583 18.31 10.321 18.3473 9.98766 18.382C9.65433 18.4167 9.325 18.49 8.99966 18.602V10.568L5.41166 12.552C5.021 12.768 4.61033 12.82 4.17966 12.708C3.749 12.596 3.42633 12.3453 3.21166 11.956L0.787663 7.73601C0.572996 7.34668 0.520996 6.93468 0.631662 6.50001C0.743662 6.06534 0.994329 5.74068 1.38366 5.52601L9.75966 0.696009C9.95433 0.590675 10.153 0.506009 10.3557 0.442009C10.5583 0.378009 10.7777 0.346008 11.0137 0.346008C11.223 0.346008 11.405 0.404676 11.5597 0.522009C11.7143 0.639342 11.8363 0.798675 11.9257 1.00001C12.4937 2.52268 13.3903 3.73668 14.6157 4.64201C15.841 5.54734 17.3023 6.00001 18.9997 6.00001C20.697 6.00001 22.159 5.54734 23.3857 4.64201C24.6123 3.73668 25.509 2.52268 26.0757 1.00001C26.1663 0.797342 26.2903 0.637342 26.4477 0.520009C26.605 0.402676 26.789 0.345341 26.9997 0.348008C27.2357 0.348008 27.453 0.380009 27.6517 0.444009C27.8503 0.508009 28.047 0.592675 28.2417 0.698009L36.6157 5.52601C37.005 5.74068 37.2537 6.06334 37.3617 6.49401C37.4697 6.92468 37.4157 7.33534 37.1997 7.72601L34.7877 11.918C34.573 12.3073 34.2503 12.564 33.8197 12.688C33.389 12.812 32.9783 12.7667 32.5877 12.552L28.9997 10.566V24.626L27.6577 25.8C27.575 25.8747 27.4737 25.9413 27.3537 26C27.2337 26.056 27.1157 26.1047 26.9997 26.146V7.15001L33.2497 10.6L35.2497 7.10001L27.5997 2.65001C26.7997 4.28334 25.631 5.58334 24.0937 6.55001C22.5563 7.51668 20.8583 8.00001 18.9997 8.00001C17.141 8.00001 15.443 7.51668 13.9057 6.55001C12.3683 5.58334 11.1997 4.28334 10.3997 2.65001L2.69966 7.10001L4.74966 10.6ZM3.76966 27.634C3.583 27.4073 3.501 27.1593 3.52366 26.89C3.54633 26.6207 3.673 26.3933 3.90366 26.208L6.70366 23.808C7.393 23.2187 8.17833 22.768 9.05966 22.456C9.941 22.144 10.8377 21.988 11.7497 21.988C12.6617 21.988 13.5503 22.144 14.4157 22.456C15.281 22.768 16.0577 23.2187 16.7457 23.808L22.5457 28.758C23.0483 29.194 23.6323 29.516 24.2977 29.724C24.9643 29.9333 25.6317 30.038 26.2997 30.038C26.977 30.038 27.6377 29.9353 28.2817 29.73C28.927 29.526 29.5003 29.202 30.0017 28.758L32.8017 26.318C33.031 26.1313 33.2797 26.0487 33.5477 26.07C33.8157 26.0913 34.043 26.2153 34.2297 26.442C34.4163 26.67 34.4983 26.918 34.4757 27.186C34.453 27.454 34.3263 27.682 34.0957 27.87L31.2957 30.27C30.6063 30.8593 29.8297 31.3013 28.9657 31.596C28.1017 31.8907 27.213 32.038 26.2997 32.038C25.3863 32.038 24.4897 31.8913 23.6097 31.598C22.7297 31.3047 21.9443 30.862 21.2537 30.27L15.4537 25.32C14.951 24.884 14.3777 24.5613 13.7337 24.352C13.0897 24.1427 12.4283 24.038 11.7497 24.038C11.0803 24.038 10.413 24.1427 9.74766 24.352C9.08233 24.5613 8.49833 24.884 7.99566 25.32L5.14566 27.72C4.91766 27.9067 4.67766 27.996 4.42566 27.988C4.17366 27.98 3.955 27.862 3.76966 27.634Z" fill="#59423C"/>
</svg>
