<svg width="30" height="42" viewBox="0 0 30 42" fill="none" xmlns="http://www.w3.org/2000/svg">
<path d="M29.1395 15.0431L25.0577 1.18125C24.9889 0.948576 24.8468 0.74436 24.6525 0.599061C24.4582 0.453762 24.2221 0.375167 23.9795 0.375H6.02078C5.77816 0.375167 5.5421 0.453762 5.34781 0.599061C5.15351 0.74436 5.01139 0.948576 4.94265 1.18125L0.860779 15.0431C0.240273 17.1013 0.207653 19.292 0.766602 21.3678C1.32555 23.4436 2.4538 25.3217 4.0239 26.79C6.71484 29.3133 10.1949 30.8294 13.8752 31.0819V39.375H7.50015C7.20179 39.375 6.91564 39.4935 6.70466 39.7045C6.49368 39.9155 6.37515 40.2016 6.37515 40.5C6.37515 40.7984 6.49368 41.0845 6.70466 41.2955C6.91564 41.5065 7.20179 41.625 7.50015 41.625H22.5002C22.7985 41.625 23.0847 41.5065 23.2957 41.2955C23.5066 41.0845 23.6252 40.7984 23.6252 40.5C23.6252 40.2016 23.5066 39.9155 23.2957 39.7045C23.0847 39.4935 22.7985 39.375 22.5002 39.375H16.1252V31.0819C19.8053 30.829 23.2852 29.3129 25.9764 26.79C27.5465 25.3217 28.6748 23.4436 29.2337 21.3678C29.7927 19.292 29.76 17.1013 29.1395 15.0431ZM6.86265 2.625H23.1377L26.9833 15.6806C27.032 15.8494 27.077 16.0181 27.1164 16.1869C22.8902 17.8875 18.0845 16.05 15.5083 14.7469C10.5189 12.2194 6.65265 12.0637 3.90578 12.66L6.86265 2.625ZM24.4408 25.1456C21.8813 27.5419 18.5063 28.8752 15.0002 28.8752C11.494 28.8752 8.11901 27.5419 5.55953 25.1456C4.29536 23.9619 3.38736 22.4484 2.93808 20.7758C2.48881 19.1033 2.51615 17.3384 3.01703 15.6806L3.15578 15.21C5.46953 14.3738 9.20453 14.0756 14.492 16.7531C16.5545 17.7937 19.8639 19.1231 23.402 19.1231C24.7521 19.1321 26.0945 18.9186 27.3752 18.4913C27.3623 19.7413 27.0955 20.9758 26.5911 22.1197C26.0867 23.2636 25.3551 24.293 24.4408 25.1456Z" fill="#59423C"/>
</svg>
