<svg width="98" height="98" viewBox="0 0 98 98" fill="none" xmlns="http://www.w3.org/2000/svg">
<path fill-rule="evenodd" clip-rule="evenodd" d="M6 49C6 25.2518 25.2518 6 49 6C72.7482 6 92 25.2518 92 49C92 72.7482 72.7482 92 49 92C25.2518 92 6 72.7482 6 49ZM49 0C21.938 0 0 21.938 0 49C0 76.062 21.938 98 49 98C76.062 98 98 76.062 98 49C98 21.938 76.062 0 49 0ZM43.6213 69.1213L78.6213 34.1213L74.3787 29.8787L41.5 62.7574L23.1213 44.3787L18.8787 48.6213L39.3787 69.1213L41.5 71.2426L43.6213 69.1213Z" fill="#8ED99E"/>
</svg>
